#!OML:ASF E:\Style4\Style4.ASF
:FULLY-SPECIFIED
:DEGREES
780
root -0.185958 17.7095 -2.19294 -1.05138 -1.89775 1.19331
lowerback 7.30456 2.417 -0.145537
upperback 3.38198 3.20527 0.37634
thorax -0.630745 1.59705 0.221321
lowerneck -3.75772 -5.03305 -6.79395
upperneck 16.144 -6.82334 4.07786
head 5.87017 -3.43948 1.96568
rclavicle 2.4202e-014 1.47101e-014
rhumerus -6.9303 30.7469 -84.9086
rradius 54.2937
rwrist 18.171
rhand -25.9606 13.7727
rfingers 7.12502
rthumb 0.583821 -16.2062
lclavicle 2.4202e-014 1.47101e-014
lhumerus 10.1989 -44.3477 70.9385
lradius 84.666
lwrist -17.6797
lhand -25.0054 29.5629
lfingers 7.12502
lthumb 1.50638 59.5373
rfemur -13.6384 1.40279 17.8052
rtibia 33.8303
rfoot -17.7871 -14.2595
rtoes -13.5285
lfemur -11.4861 -2.08923 -19.6007
ltibia 32.3401
lfoot -19.7102 8.81323
ltoes -14.1158
781
root -0.182545 17.7097 -2.19175 -1.10964 -1.98618 1.25665
lowerback 7.33176 2.36682 -0.192998
upperback 3.38589 3.13523 0.366681
thorax -0.643328 1.56164 0.24219
lowerneck -3.6699 -4.95733 -6.73924
upperneck 16.0195 -6.71718 4.01052
head 5.80568 -3.39055 1.94639
rclavicle 6.90777e-015 -4.77083e-015
rhumerus -6.64626 31.0574 -84.632
rradius 56.2429
rwrist 17.7398
rhand -26.2136 14.3173
rfingers 7.12502
rthumb 0.339469 -15.6622
lclavicle 6.90777e-015 -4.77083e-015
lhumerus 9.09037 -44.5709 71.6273
lradius 83.5523
lwrist -17.5387
lhand -24.3047 30.1759
lfingers 7.12502
lthumb 2.18306 60.1445
rfemur -13.5793 1.42097 17.726
rtibia 33.9339
rfoot -17.8383 -14.0242
rtoes -12.7085
lfemur -11.3679 -2.03039 -19.6886
ltibia 32.27
lfoot -19.6906 8.87428
ltoes -14.1974
782
root -0.178601 17.7084 -2.18981 -1.21521 -2.11707 1.35263
lowerback 7.39632 2.3135 -0.241263
upperback 3.41306 3.06028 0.322219
thorax -0.650584 1.52394 0.227274
lowerneck -3.51355 -4.86402 -6.63411
upperneck 15.7717 -6.59496 3.95787
head 5.68872 -3.33065 1.9271
rclavicle -1.21756e-014 -5.56597e-015
rhumerus -6.25258 31.4772 -84.3276
rradius 58.2077
rwrist 17.2236
rhand -26.5765 14.4425
rfingers 7.12502
rthumb -0.011072 -15.5372
lclavicle -1.21756e-014 -5.56597e-015
lhumerus 8.06272 -44.8328 72.1943
lradius 82.2249
lwrist -17.5867
lhand -23.8786 30.7205
lfingers 7.12502
lthumb 2.59464 60.6845
rfemur -13.5078 1.4884 17.6008
rtibia 34.002
rfoot -17.9478 -13.8874
rtoes -12.4073
lfemur -11.1996 -1.90781 -19.8116
ltibia 32.2181
lfoot -19.6891 8.91761
ltoes -14.2149
783
root -0.171154 17.7053 -2.18858 -1.18152 -2.20352 1.45039
lowerback 7.35234 2.22576 -0.280605
upperback 3.381 2.94078 0.285517
thorax -0.658626 1.46414 0.222005
lowerneck -3.47222 -4.78501 -6.46796
upperneck 15.6903 -6.4754 3.77376
head 5.63803 -3.27578 1.85235
rclavicle 3.60794e-014 -6.75868e-015
rhumerus -5.81303 31.861 -83.988
rradius 60.1924
rwrist 17.1004
rhand -27.0655 13.8795
rfingers 7.12502
rthumb -0.483329 -16.0997
lclavicle 3.60794e-014 -6.75868e-015
lhumerus 6.9523 -45.0049 72.8778
lradius 80.7946
lwrist -17.5784
lhand -23.9731 30.2729
lfingers 7.12502
lthumb 2.5033 60.2379
rfemur -13.6491 1.51221 17.4583
rtibia 34.0215
rfoot -17.8831 -14.0517
rtoes -13.6677
lfemur -11.2197 -1.86217 -19.9437
ltibia 32.2142
lfoot -19.6948 8.94729
ltoes -14.3145
784
root -0.16048 17.7034 -2.18652 -1.07151 -2.21735 1.48527
lowerback 7.24371 2.12815 -0.195674
upperback 3.32033 2.81675 0.255494
thorax -0.654774 1.40324 0.156399
lowerneck -3.53275 -4.73621 -6.39789
upperneck 15.7413 -6.40165 3.69363
head 5.65546 -3.2408 1.81912
rclavicle -2.40032e-014 7.95139e-016
rhumerus -5.39778 31.9575 -83.6216
rradius 62.2636
rwrist 17.5953
rhand -27.1104 13.6837
rfingers 7.12502
rthumb -0.526758 -16.2954
lclavicle -2.40032e-014 7.95139e-016
lhumerus 5.83442 -45.1929 73.659
lradius 79.3232
lwrist -17.2218
lhand -23.9776 29.2914
lfingers 7.12502
lthumb 2.49904 59.2565
rfemur -13.7919 1.40155 17.3744
rtibia 34.0007
rfoot -17.8018 -14.102
rtoes -14.615
lfemur -11.3474 -1.90446 -20.0261
ltibia 32.2395
lfoot -19.63 9.10124
ltoes -15.0223
